<?xml version="1.0" encoding="utf-8"?>
<!-- Generator: Adobe Illustrator 25.0.0, SVG Export Plug-In . SVG Version: 6.00 Build 0)  -->
<svg version="1.1" id="Layer_1" xmlns="http://www.w3.org/2000/svg" xmlns:xlink="http://www.w3.org/1999/xlink" x="0px" y="0px"
	 viewBox="0 0 1080 317.2" style="enable-background:new 0 0 1080 317.2;" xml:space="preserve">
<style type="text/css">
	.st0{fill:#E5E5E5;}
	.st1{fill:#00AA55;}
	.st2{fill:#004C24;}
	.st3{fill:#FFFFFF;}
</style>
<g>
	<path class="st0" d="M95.6,216c-7.7,0-13.8-2.4-18.5-7.1c-4.7-4.8-7-11.4-7-20v-48.8c0-10.3,2-18.1,6.1-23.5
		c4.1-5.4,10.7-8.2,19.9-8.2c5,0,9.5,0.9,13.4,2.8c3.9,1.8,7,4.6,9.2,8.3c2.2,3.7,3.4,8.3,3.4,13.8v18.3h-21v-15.6
		c0-3.2-0.4-5.3-1.2-6.4c-0.8-1.1-2-1.7-3.7-1.7c-2,0-3.3,0.7-4,2.1c-0.7,1.4-1,3.3-1,5.7v52.9c0,2.9,0.4,5,1.3,6.2
		c0.9,1.2,2.1,1.8,3.7,1.8c1.8,0,3.1-0.7,3.8-2.2c0.7-1.5,1.1-3.4,1.1-5.8v-19h21.3v20c0,9.3-2.3,16-7,20.2S104,216,95.6,216z"/>
	<path class="st0" d="M129.3,215.1V109.3h32.4c5.4,0,9.5,1.2,12.3,3.7c2.8,2.5,4.6,5.9,5.6,10.3c0.9,4.4,1.4,9.6,1.4,15.6
		c0,5.8-0.7,10.4-2.2,13.8c-1.5,3.4-4.2,5.8-8.3,7.1c3.3,0.7,5.7,2.3,7,5c1.3,2.6,2,6,2,10.2v40h-20.8v-41.4c0-3.1-0.6-5-1.9-5.7
		c-1.3-0.7-3.3-1.1-6.1-1.1v48.2H129.3z M150.8,148.5h5.1c2.9,0,4.4-3.2,4.4-9.6c0-4.1-0.3-6.8-1-8.1c-0.6-1.3-1.8-1.9-3.6-1.9h-4.9
		V148.5z"/>
	<path class="st0" d="M213.2,216c-8.5,0-14.9-2.6-19.4-7.7c-4.5-5.1-6.7-12.5-6.7-22.1V136c0-9.1,2.2-15.9,6.6-20.6
		c4.4-4.7,10.9-7,19.4-7c8.5,0,15,2.3,19.4,7c4.4,4.7,6.6,11.6,6.6,20.6v50.2c0,9.7-2.2,17-6.7,22.1
		C228.1,213.5,221.6,216,213.2,216z M213.4,196.6c3.2,0,4.8-3.1,4.8-9.3v-51.6c0-5.2-1.6-7.8-4.7-7.8c-3.5,0-5.3,2.7-5.3,8v51.5
		c0,3.3,0.4,5.6,1.2,7.1C210.2,195.8,211.5,196.6,213.4,196.6z"/>
	<path class="st0" d="M247.8,215.1V109.3h21.7l9.7,50.6v-50.6h20.4v105.7H279l-10.6-52.9v52.9H247.8z"/>
	<path class="st0" d="M334.3,216c-8.5,0-14.9-2.6-19.4-7.7c-4.5-5.1-6.7-12.5-6.7-22.1V136c0-9.1,2.2-15.9,6.6-20.6
		c4.4-4.7,10.9-7,19.4-7c8.5,0,15,2.3,19.4,7c4.4,4.7,6.6,11.6,6.6,20.6v50.2c0,9.7-2.2,17-6.7,22.1
		C349.2,213.5,342.7,216,334.3,216z M334.5,196.6c3.2,0,4.8-3.1,4.8-9.3v-51.6c0-5.2-1.6-7.8-4.7-7.8c-3.5,0-5.3,2.7-5.3,8v51.5
		c0,3.3,0.4,5.6,1.2,7.1C331.3,195.8,332.6,196.6,334.5,196.6z"/>
</g>
<g>
	<path class="st0" d="M698.3,216.2c-9.7,0-16.6-2.4-20.9-7.2c-4.3-4.8-6.4-12.5-6.4-22.9v-10.3h20.9v13.2c0,2.4,0.4,4.4,1.1,5.7
		s2,2.1,3.9,2.1c1.9,0,3.3-0.6,4-1.7s1.1-3,1.1-5.5c0-3.2-0.3-6-1-8.1c-0.6-2.2-1.8-4.3-3.3-6.2c-1.6-2-3.8-4.3-6.6-6.9l-9.5-9
		c-7.1-6.7-10.6-14.3-10.6-22.9c0-9,2.1-15.9,6.3-20.6c4.2-4.7,10.2-7.1,18.2-7.1c9.7,0,16.6,2.6,20.6,7.8s6.1,13,6.1,23.5h-21.5
		v-7.3c0-1.4-0.4-2.6-1.2-3.4c-0.8-0.8-1.9-1.2-3.3-1.2c-1.7,0-2.9,0.5-3.7,1.4c-0.8,0.9-1.2,2.2-1.2,3.6s0.4,3.1,1.2,4.8
		c0.8,1.7,2.4,3.7,4.7,5.9l12.2,11.7c2.4,2.3,4.7,4.8,6.7,7.4c2,2.6,3.7,5.6,4.9,9c1.2,3.4,1.9,7.6,1.9,12.5
		c0,9.9-1.8,17.7-5.5,23.3C713.8,213.4,707.4,216.2,698.3,216.2z"/>
	<path class="st0" d="M730,215.2V109.5h27.9c5.8,0,10.5,1.3,13.9,3.9c3.4,2.6,5.9,6.3,7.4,11.1c1.5,4.8,2.2,10.5,2.2,17.2
		c0,6.4-0.6,12-1.9,16.7s-3.5,8.4-6.6,11c-3.2,2.6-7.7,3.9-13.5,3.9h-8.6v41.9H730z M750.8,154.4h1.2c3.9,0,6.3-1.1,7.2-3.3
		c0.9-2.2,1.3-5.4,1.3-9.7c0-4-0.4-7.1-1.3-9.3s-2.9-3.3-6.1-3.3h-2.3V154.4z"/>
	<path class="st0" d="M813.3,216.2c-8.5,0-14.9-2.6-19.4-7.7c-4.5-5.1-6.7-12.5-6.7-22.1v-50.2c0-9.1,2.2-15.9,6.6-20.6
		c4.4-4.7,10.9-7,19.4-7c8.5,0,15,2.3,19.4,7c4.4,4.7,6.6,11.6,6.6,20.6v50.2c0,9.7-2.2,17-6.7,22.1
		C828.2,213.6,821.7,216.2,813.3,216.2z M813.5,196.7c3.2,0,4.8-3.1,4.8-9.3v-51.6c0-5.2-1.6-7.8-4.7-7.8c-3.5,0-5.3,2.7-5.3,8v51.5
		c0,3.3,0.4,5.6,1.2,7.1C810.3,196,811.6,196.7,813.5,196.7z"/>
	<path class="st0" d="M847.9,215.2V109.5h32.4c5.4,0,9.5,1.2,12.3,3.7c2.8,2.5,4.6,5.9,5.6,10.3c0.9,4.4,1.4,9.6,1.4,15.6
		c0,5.8-0.7,10.4-2.2,13.8c-1.5,3.4-4.2,5.8-8.3,7.1c3.3,0.7,5.7,2.3,7,5c1.3,2.6,2,6,2,10.2v40h-20.8v-41.4c0-3.1-0.6-5-1.9-5.7
		s-3.3-1.1-6.1-1.1v48.2H847.9z M869.4,148.7h5.1c2.9,0,4.4-3.2,4.4-9.6c0-4.1-0.3-6.8-1-8.1c-0.6-1.3-1.8-1.9-3.6-1.9h-4.9V148.7z"
		/>
	<path class="st0" d="M915.6,215.2v-85.4h-12.6v-20.3h46.3v20.3h-12.6v85.4H915.6z"/>
	<path class="st0" d="M980.3,216.2c-9.7,0-16.6-2.4-20.9-7.2c-4.3-4.8-6.4-12.5-6.4-22.9v-10.3h20.9v13.2c0,2.4,0.4,4.4,1.1,5.7
		s2,2.1,3.9,2.1c1.9,0,3.3-0.6,4-1.7s1.1-3,1.1-5.5c0-3.2-0.3-6-1-8.1c-0.6-2.2-1.8-4.3-3.3-6.2c-1.6-2-3.8-4.3-6.6-6.9l-9.5-9
		c-7.1-6.7-10.6-14.3-10.6-22.9c0-9,2.1-15.9,6.3-20.6c4.2-4.7,10.2-7.1,18.2-7.1c9.7,0,16.6,2.6,20.6,7.8s6.1,13,6.1,23.5h-21.5
		v-7.3c0-1.4-0.4-2.6-1.2-3.4c-0.8-0.8-1.9-1.2-3.3-1.2c-1.7,0-2.9,0.5-3.7,1.4c-0.8,0.9-1.2,2.2-1.2,3.6s0.4,3.1,1.2,4.8
		c0.8,1.7,2.4,3.7,4.7,5.9l12.2,11.7c2.4,2.3,4.7,4.8,6.7,7.4c2,2.6,3.7,5.6,4.9,9c1.2,3.4,1.9,7.6,1.9,12.5
		c0,9.9-1.8,17.7-5.5,23.3C995.8,213.4,989.4,216.2,980.3,216.2z"/>
</g>
<g>
	<g>
		<path class="st1" d="M646.9,172.9c-0.1,0.5-0.2,1-0.2,1.6c-0.3,0.1-0.3,0.3-0.3,0.5c-0.3,2.3-0.7,4.7-1,7
			c-0.7,3.7-1.5,7.3-2.5,10.9c-2.8,9.7-6.6,19-12,27.6c-20.2,32.5-49.4,51.2-87.3,56c-4.9,0.6-10,0.9-14.7,2.5
			c-7.7,2.7-15.6,5-23.5,6.9c-1.6,0.4-3.3,0.4-4.9,0.8c-0.5,0.1-1-0.1-1.3-0.5c-0.2-0.5,0.2-0.8,0.5-1.1c0.4-0.4,0.8-0.8,1.3-1.1
			c2.6-2.1,5.4-3.9,7.7-6.3c1.2-1.3,0.9-2.4-0.9-3c-0.3-0.1-0.6-0.1-0.9-0.2c-4.1-0.7-8.2-0.4-12.2,0.1c-6.2,0.7-12.4,1.7-18.7,2
			c-5.2,0.2-10.4,0.5-15.5,1c-2.6,0.3-5.2,0.6-7.8,0.4c-1.2-0.1-2.6-0.2-3.2-1.5c-0.6-1.3,0.3-2.3,1-3.3c0.2-0.3,0.4-0.5,0.7-0.8
			c1.9-2.1,4.3-3.7,6.5-5.4c2.3-1.8,4.7-3.5,6.6-5.7c1.6-2,1.4-3.6-0.7-5.1c-2.1-1.6-4.6-2.5-7-3.5c-5.7-2.1-11.7-3.1-17.6-4.5
			c-6.6-1.6-13.1-3.3-19-6.7c-2.3-1.3-4.6-1.7-7.2-1.5c-4.7,0.4-9.3,1.2-14,1.3c-1.3,0-2.9,0.2-3.5-1.1c-0.7-1.3,0.4-2.5,1.3-3.5
			c1.9-2,3.8-4,5.6-6c2.8-3.2,4.8-6.7,4.3-11.2c-0.1-0.8,0-1.7,0.1-2.5c0.4-6.3,2.5-12.1,4.7-17.9c0.9-2.5,2.2-4.9,2.6-7.5
			c0.3-2.4-0.6-3.9-2.9-4.6c-1-0.3-2.1-0.4-3.2-0.5c-3.1-0.2-6.3,0-9.4-0.7c-3.8-1-5.2-3.5-3.8-7.2c0.9-2.2,2.3-4.1,3.8-5.9
			c3.2-3.9,6.9-7.3,10.3-11c4.1-4.4,6.4-9.6,7.1-15.6c0.5-4.4,1.4-8.7,2.5-13c0.6-2.6,0.1-4-2.9-4.6c-0.6-0.1-1.3-0.2-1.9-0.2
			c-2.1-0.2-4.2,0.2-6.3-0.1c-2.6-0.4-3.2-1.9-1.7-4c1.2-1.6,2.6-2.9,4.2-4.1c5.2-3.9,10.3-7.9,14.5-12.8c4.6-5.5,9.2-11,13.8-16.5
			c5.7-6.8,11.7-13.5,18.5-19.2c32.2-26.8,75-34.4,114.4-20.2c25.4,9.1,45.2,25.4,59.4,48.3c13.2,21.3,18.8,44.5,17.1,69.5
			C646.9,170.4,646.5,171.6,646.9,172.9z"/>
	</g>
	<g>
		<path class="st2" d="M601.5,146.2c0,0,0.8-1.4,2.4-1.1c1.5,0.3-0.9,3.4-1.9,4.2c-0.9,0.8-14.2,13.8-32.8,12.6
			c-18.6-1.2-24.8-12.8-24.8-12.8l11.4-9.3c0,0,5.5,15.8,22.5,15.2C595.3,154.5,601.5,146.2,601.5,146.2z"/>
	</g>
	<g>
		<circle class="st3" cx="566.4" cy="130.7" r="10.8"/>
	</g>
	<g>
		<path class="st2" d="M557.7,177.8c-1.4,4.2-5,7.6-8.3,10.3c-3.4,2.9-7.2,5.3-10.8,7.9c-6.1,4.3-12.3,8.4-19,11.6
			c-1.7,0.8-3.4,1.5-5.1,2.2c-1.5,0.6-3.6,1.6-5.1,0.7c-1.3-0.7-0.6-2.1,0.2-3c2.6-2.8,6.6-4,9.9-5.7c4.8-2.4,9.5-5,13.8-8.3
			c2.2-1.7,4.3-3.6,6.1-5.7c1.6-1.9,3.7-4.2,3.2-6.9c-0.3-1.8-1.7-3.2-3.4-3.9c-2.3-1.1-5.1-1.3-7.6-1.4c-3.7-0.1-7.4,0.4-11.1,0
			c-0.9-0.1-1.7-0.2-2.5-0.4c-1.9-0.4-4.1-1.2-4.6-3.3c-0.3-1-0.1-2.1,0.2-3.1c0.8-2.7,2.4-5.2,4.3-7.3c1.4-0.8,2.8-1.6,4.2-2.4
			c1.3-0.7,2.7-1.5,4-2.3c-1.1,1.6-1.7,3.5-0.1,5.2c0.9,1,2.1,1.5,3.3,1.9c4.1,1.4,8.6,1.5,13,1.7c3.7,0.2,7.3,0.6,10.6,2.1
			C556.6,169.9,559,173.7,557.7,177.8z"/>
	</g>
	<g>
		<path class="st3" d="M556,150.7c-2.1,6.8-7.9,11.8-13.8,15.4c-0.2,0.1-0.5,0.3-0.7,0.4c-6.6,3.9-14,6.6-21.1,9.4
			c-0.7,0.3-1.3,0.5-2,0.8c-0.9,0.4-1.9,0.8-2.8,1.2c-14,5.8-28,11.3-41.3,18.7c-7.9,4.4-15.5,9.3-22.9,14.5
			c-1.1,0.8-2.7,1.5-3.6,0.5c-0.5-0.5-0.5-1.4-0.2-2.1c0.3-0.7,0.9-1.2,1.5-1.7c14.8-12.6,30.5-23.9,47.1-33.9c7-4.2,14.3-8,21.5-12
			c1.4-0.8,2.8-1.6,4.2-2.4c1.3-0.7,2.7-1.5,4-2.3c4.2-2.5,8.3-5.5,10.6-9.8c3.3-6,0.6-13.6-6.1-15.6c-10.7-3.1-20.3,5.7-29.7,9.1
			c-0.7,0.3-2,0.3-2.5-0.2c-0.3-0.3-0.3-0.7,0.2-1.4c1.7-2.2,4.4-3.1,6.8-4.5c13.2-7.5,33.9-15.1,46.3-2.1
			C556.1,137.5,557.9,144.5,556,150.7z"/>
	</g>
	<g>
		<path class="st1" d="M398.1,161.4c0,0-11.7,3.6-8,5.7S398.1,161.4,398.1,161.4z"/>
	</g>
	<g>
		<path class="st1" d="M439.9,259.3c0,0-11.7,3.6-8,5.7C435.6,267.2,439.9,259.3,439.9,259.3z"/>
	</g>
</g>
</svg>
